P2
101 95
255
0 49 43 72 65 0 5 10 40 36 7 0 61 33 96 190 69 0 160 133 36 52 119 0 10 177 169 117 0 0 255 237 79 57 59 0 147 0 4 7 34 0 251 253 243 226 94 0 16 3 0 3 0 0 56 30 28 223 243 0 52 45 26 0 11 0 172 41 119 218 251 0 255 4 22 32 26 0 100 214 238 228 34 0 252 251 242 242 186 0 3 71 70 68 70 0 232 255 237 147 90 
130 56 66 71 76 0 255 57 30 22 0 0 85 1 0 198 150 0 204 217 219 229 255 0 47 254 234 44 2 0 184 99 66 52 0 0 149 140 97 49 69 0 145 89 30 59 53 0 40 41 18 16 194 0 51 26 7 255 224 0 48 48 29 19 32 0 253 254 251 249 250 0 7 1 15 24 29 0 151 205 166 61 0 0 83 228 226 252 255 0 85 89 94 207 190 0 169 176 213 165 167 
255 152 110 132 116 0 58 46 31 27 28 0 135 5 200 200 170 0 191 205 186 213 241 0 106 242 226 13 14 0 233 179 88 84 68 0 251 255 251 200 85 0 1 6 10 23 0 0 51 59 56 255 254 0 91 0 35 209 180 0 8 18 16 18 30 0 239 255 234 185 168 0 8 21 28 36 27 0 200 166 175 87 141 0 48 32 49 50 0 0 92 89 56 47 72 0 0 32 161 157 208 
184 200 156 153 114 0 31 36 42 39 32 0 42 31 242 227 128 0 37 33 39 40 48 0 146 210 105 4 167 0 175 161 91 84 67 0 236 233 223 172 43 0 252 156 98 17 17 0 40 58 64 234 218 0 113 9 16 165 149 0 6 19 27 34 49 0 177 72 54 38 74 0 39 35 42 36 31 0 238 246 232 234 239 0 84 65 15 69 70 0 79 63 0 7 35 0 43 79 85 164 180 
135 133 138 140 106 0 3 27 39 31 24 0 245 249 255 232 28 0 0 5 2 35 39 0 218 235 154 44 126 0 39 40 39 27 31 0 66 48 25 32 31 0 244 255 231 156 161 0 11 0 32 32 42 0 34 15 13 5 1 0 9 35 254 46 49 0 30 6 0 4 59 0 39 35 9 0 4 0 206 254 232 184 212 0 91 111 84 38 57 0 100 92 97 116 255 0 49 123 201 198 202 
0 0 0 0 0 0 0 0 0 0 0 0 0 0 0 0 0 0 0 0 0 0 0 0 0 0 0 0 0 0 0 0 0 0 0 0 0 0 0 0 0 0 0 0 0 0 0 0 0 0 0 0 0 0 0 0 0 0 0 0 0 0 0 0 0 0 0 0 0 0 0 0 0 0 0 0 0 0 0 0 0 0 0 0 0 0 0 0 0 0 0 0 0 0 0 0 0 0 0 0 0 
93 0 134 207 211 0 41 10 193 255 206 0 250 138 36 136 61 0 0 0 36 207 211 0 6 42 55 228 5 0 222 221 198 120 119 0 217 141 98 20 52 0 244 239 179 46 57 0 4 12 35 255 253 0 74 60 27 31 75 0 45 57 40 12 2 0 125 0 5 23 255 0 255 182 0 36 50 0 51 187 197 255 4 0 208 224 255 246 179 0 0 69 21 66 78 0 0 204 255 128 0 
227 228 200 255 214 0 20 0 164 151 124 0 252 138 127 185 146 0 23 250 250 229 216 0 0 62 65 168 11 0 232 150 113 69 16 0 45 23 38 6 38 0 255 240 156 21 57 0 43 50 30 3 0 0 173 39 27 120 158 0 44 59 35 6 3 0 244 21 221 168 212 0 7 3 1 35 37 0 81 159 183 107 0 0 155 215 208 196 183 0 79 109 121 132 156 0 107 207 222 133 82 
223 200 186 198 180 0 176 186 182 150 125 0 255 112 1 151 71 0 56 255 251 61 107 0 7 198 146 127 1 0 255 136 102 53 5 0 0 4 42 49 37 0 128 24 4 1 44 0 54 66 61 47 57 0 254 125 1 184 208 0 45 62 29 5 0 0 228 88 166 69 54 0 6 0 27 39 41 0 107 160 169 80 19 0 0 164 211 223 219 0 149 150 150 149 164 0 136 187 179 121 99 
95 110 133 149 111 0 163 190 169 139 135 0 234 0 12 254 233 0 35 72 69 40 40 0 54 255 106 0 27 0 252 133 126 87 34 0 252 255 125 66 41 0 114 7 0 154 157 0 53 68 63 53 53 0 226 95 2 177 121 0 63 255 24 13 25 0 158 182 181 151 129 0 0 1 32 35 37 0 149 175 163 64 56 0 33 64 198 150 83 0 151 150 106 111 147 0 117 149 131 116 122 
100 102 124 77 54 0 99 200 188 156 118 0 203 32 187 228 178 0 25 24 25 29 31 0 58 149 47 45 86 0 146 124 37 3 0 0 216 193 27 31 31 0 170 112 41 161 145 0 41 47 40 46 59 0 151 0 22 62 62 0 28 47 8 15 29 0 40 45 34 29 26 0 23 30 32 29 27 0 143 224 170 89 82 0 30 69 100 81 16 0 255 142 65 105 125 0 50 132 120 123 129 
0 0 0 0 0 0 0 0 0 0 0 0 0 0 0 0 0 0 0 0 0 0 0 0 0 0 0 0 0 0 0 0 0 0 0 0 0 0 0 0 0 0 0 0 0 0 0 0 0 0 0 0 0 0 0 0 0 0 0 0 0 0 0 0 0 0 0 0 0 0 0 0 0 0 0 0 0 0 0 0 0 0 0 0 0 0 0 0 0 0 0 0 0 0 0 0 0 0 0 0 0 
53 20 33 52 0 0 89 0 11 230 209 0 71 67 21 22 53 0 84 0 73 217 217 0 39 1 92 240 63 0 233 237 238 242 234 0 248 227 125 32 94 0 236 241 223 181 30 0 11 27 32 18 255 0 77 59 27 31 59 0 123 198 167 49 9 0 55 3 0 32 164 0 255 229 8 28 50 0 28 147 194 255 74 0 125 179 220 188 161 0 27 92 0 59 106 0 0 29 254 24 0 
221 203 149 147 82 0 35 14 218 178 140 0 186 110 35 34 64 0 0 14 53 43 40 0 0 58 212 200 5 0 234 128 98 70 63 0 133 12 37 31 73 0 254 238 226 129 128 0 10 45 34 9 2 0 128 44 23 27 210 0 175 205 143 22 8 0 187 16 158 192 164 0 225 8 8 34 42 0 0 134 178 124 29 0 193 215 244 206 221 0 67 151 163 131 177 0 6 36 43 17 1 
255 192 211 180 140 0 50 157 198 160 99 0 255 82 1 37 157 0 82 143 255 215 225 0 4 252 236 175 7 0 195 91 84 50 0 0 0 51 46 58 68 0 189 116 0 3 47 0 53 46 57 0 47 0 172 56 5 107 255 0 176 221 101 15 53 0 225 207 255 224 186 0 10 7 6 32 39 0 75 129 144 49 16 0 63 178 212 255 217 0 172 240 239 223 228 0 20 32 38 25 21 
60 126 46 146 71 0 147 175 172 136 110 0 151 1 34 159 183 0 56 86 119 42 40 0 38 255 249 52 19 0 255 146 108 91 58 0 246 254 226 92 49 0 2 3 1 109 29 0 49 68 60 52 240 0 221 6 0 37 158 0 197 255 88 23 0 0 194 207 209 151 117 0 0 10 24 34 36 0 95 156 128 31 48 0 51 0 166 220 108 0 224 254 164 133 160 0 12 28 31 23 23 
32 30 98 80 89 0 127 157 255 159 154 0 50 0 113 162 119 0 32 34 32 36 37 0 42 223 87 41 87 0 188 145 107 71 43 0 243 244 123 40 52 0 160 78 18 126 100 0 46 54 43 48 57 0 135 4 27 81 65 0 143 158 109 39 119 0 114 111 92 39 35 0 29 33 35 39 35 0 150 216 216 73 114 0 19 73 172 143 3 0 200 139 80 71 131 0 4 15 21 20 24 
0 0 0 0 0 0 0 0 0 0 0 0 0 0 0 0 0 0 0 0 0 0 0 0 0 0 0 0 0 0 0 0 0 0 0 0 0 0 0 0 0 0 0 0 0 0 0 0 0 0 0 0 0 0 0 0 0 0 0 0 0 0 0 0 0 0 0 0 0 0 0 0 0 0 0 0 0 0 0 0 0 0 0 0 0 0 0 0 0 0 0 0 0 0 0 0 0 0 0 0 0 
155 99 84 161 220 0 28 51 22 255 240 0 76 50 37 62 69 0 156 8 37 61 212 0 1 1 187 207 2 0 232 236 237 195 139 0 242 143 4 0 22 0 252 255 249 239 38 0 2 36 17 0 229 0 68 39 22 50 203 0 109 180 146 9 15 0 1 4 0 29 165 0 255 238 0 21 43 0 98 150 200 255 54 0 178 172 207 198 168 0 0 2 5 111 131 0 0 201 255 150 4 
111 1 20 185 230 0 43 11 192 193 75 0 193 66 7 5 56 0 169 173 85 95 254 0 5 196 236 208 0 0 242 105 87 63 0 0 102 0 2 0 42 0 254 244 126 32 33 0 48 53 16 7 4 0 70 33 17 132 197 0 157 246 134 0 9 0 255 147 214 215 200 0 7 9 8 33 38 0 1 142 184 118 43 0 154 196 255 221 237 0 148 181 193 187 231 0 58 182 196 92 93 
39 0 56 208 255 0 227 193 218 137 11 0 255 7 0 162 203 0 127 110 216 142 255 0 3 231 255 68 7 0 255 137 92 73 67 0 186 198 190 119 38 0 80 2 7 0 31 0 44 47 45 51 230 0 168 77 0 111 254 0 171 254 33 23 118 0 216 239 249 179 90 0 8 12 8 35 33 0 85 157 128 0 24 0 29 29 186 144 74 0 188 207 204 189 185 0 76 166 148 107 131 
186 179 163 240 243 0 172 200 185 131 160 0 131 0 164 227 229 0 35 74 57 40 39 0 30 241 228 0 51 0 224 142 101 86 76 0 241 255 241 89 33 0 116 11 7 16 33 0 43 61 70 255 253 0 254 39 2 173 184 0 235 93 20 60 109 0 148 198 150 27 25 0 7 20 39 39 31 0 147 172 147 100 94 0 27 32 43 15 0 0 189 179 110 71 107 0 28 140 37 61 136 
195 206 239 237 239 0 0 121 164 214 160 0 45 128 190 247 74 0 0 4 2 30 38 0 56 235 22 79 155 0 77 76 71 45 48 0 152 75 33 37 31 0 246 236 183 142 91 0 37 39 29 28 44 0 138 3 0 21 35 0 85 79 74 77 132 0 27 26 24 15 15 0 34 39 37 35 16 0 142 195 182 112 105 0 19 35 110 47 0 0 172 150 138 146 254 0 32 21 47 157 161 
0 0 0 0 0 0 0 0 0 0 0 0 0 0 0 0 0 0 0 0 0 0 0 0 0 0 0 0 0 0 0 0 0 0 0 0 0 0 0 0 0 0 0 0 0 0 0 0 0 0 0 0 0 0 0 0 0 0 0 0 0 0 0 0 0 0 0 0 0 0 0 0 0 0 0 0 0 0 0 0 0 0 0 0 0 0 0 0 0 0 0 0 0 0 0 0 0 0 0 0 0 
100 114 148 203 159 0 14 54 255 6 3 0 0 20 111 118 56 0 185 135 23 76 112 0 28 249 204 50 193 0 242 249 92 87 89 0 28 6 21 127 205 0 219 104 73 74 115 0 55 36 239 255 36 0 26 27 130 219 226 0 60 2 8 252 50 0 89 22 226 250 241 0 32 10 37 44 5 0 131 255 20 18 82 0 13 23 20 18 29 0 75 81 89 108 53 0 247 255 9 27 35 
145 124 249 229 174 0 37 56 28 0 12 0 9 10 146 205 161 0 220 176 54 255 239 0 117 246 107 0 234 0 254 156 71 82 71 0 118 208 153 165 204 0 103 36 54 137 144 0 41 28 31 50 50 0 7 0 95 255 243 0 52 3 45 255 44 0 119 204 255 176 254 0 7 27 44 30 0 0 233 203 17 38 69 0 16 32 11 19 255 0 88 97 114 170 93 0 48 0 3 35 3 
88 91 180 254 177 0 42 37 1 10 29 0 21 10 248 221 64 0 194 60 8 101 141 0 195 182 74 93 243 0 206 154 42 46 57 0 190 255 223 185 153 0 64 0 76 169 70 0 32 49 50 200 220 0 12 10 136 254 161 0 0 7 43 23 7 0 137 216 133 127 237 0 10 37 255 0 4 0 200 0 12 59 36 0 25 27 5 5 4 0 86 30 2 135 97 0 44 7 9 11 6 
10 114 215 156 101 0 23 13 9 44 13 0 38 100 255 177 17 0 9 10 0 10 57 0 255 118 123 225 247 0 72 134 0 10 48 0 153 165 162 159 13 0 169 85 254 255 130 0 6 23 27 33 8 0 16 16 143 230 119 0 0 41 33 9 7 0 110 124 104 126 183 0 27 40 250 3 1 0 85 14 36 38 39 0 28 23 1 8 2 0 31 0 36 187 149 0 12 9 12 7 3 
0 117 204 177 54 0 47 12 7 13 13 0 144 204 244 124 16 0 8 9 2 20 11 0 209 115 176 168 172 0 77 26 4 7 51 0 64 73 97 94 0 0 179 194 213 174 148 0 4 9 21 38 0 0 17 49 143 173 97 0 12 229 22 14 32 0 37 3 0 52 57 0 34 22 8 1 4 0 25 7 66 29 43 0 36 16 0 8 5 0 61 88 106 228 255 0 9 10 25 8 5 
0 0 0 0 0 0 0 0 0 0 0 0 0 0 0 0 0 0 0 0 0 0 0 0 0 0 0 0 0 0 0 0 0 0 0 0 0 0 0 0 0 0 0 0 0 0 0 0 0 0 0 0 0 0 0 0 0 0 0 0 0 0 0 0 0 0 0 0 0 0 0 0 0 0 0 0 0 0 0 0 0 0 0 0 0 0 0 0 0 0 0 0 0 0 0 0 0 0 0 0 0 
85 46 61 121 80 0 1 5 59 255 3 0 255 62 116 151 64 0 0 29 206 215 215 0 6 55 116 252 6 0 243 234 162 149 133 0 184 141 115 133 158 0 190 186 171 43 62 0 17 48 7 218 229 0 70 36 29 43 79 0 51 69 23 4 1 0 29 4 0 250 255 0 255 5 12 48 43 0 34 57 73 255 0 0 139 172 255 195 168 0 65 0 13 115 116 0 14 255 40 0 13 
255 207 180 214 103 0 6 36 55 35 0 0 232 126 137 185 70 0 12 238 224 21 131 0 22 249 121 107 107 0 255 155 113 102 7 0 0 67 100 78 72 0 255 192 157 118 199 0 47 44 3 5 0 0 162 20 23 160 168 0 69 68 4 0 1 0 24 0 131 114 216 0 5 3 33 43 38 0 34 61 50 0 0 0 156 253 238 184 191 0 122 133 182 197 225 0 33 253 33 5 8 
95 103 181 147 91 0 27 47 42 32 3 0 219 105 0 252 70 0 58 255 247 23 112 0 70 255 112 109 118 0 169 139 103 69 0 0 4 24 24 60 44 0 127 24 0 184 198 0 50 52 0 16 49 0 171 119 40 252 219 0 71 60 5 0 2 0 56 242 197 56 44 0 0 6 34 45 34 0 40 57 34 1 5 0 64 213 194 227 214 0 198 230 211 231 255 0 30 41 32 24 29 
26 121 133 108 91 0 37 50 40 38 15 0 143 3 165 246 78 0 49 205 53 26 37 0 207 252 29 109 140 0 171 163 146 84 67 0 250 203 72 69 51 0 63 7 19 197 175 0 56 59 49 46 255 0 180 101 60 255 82 0 255 64 3 0 17 0 164 218 165 83 121 0 2 12 32 39 27 0 51 75 35 3 8 0 7 176 218 146 0 0 242 202 93 224 249 0 32 32 23 27 29 
0 103 153 119 33 0 33 250 43 37 32 0 145 10 184 223 166 0 17 23 20 20 23 0 115 102 0 99 144 0 167 156 108 51 61 0 254 73 35 52 51 0 177 20 76 184 153 0 41 42 42 49 59 0 102 0 22 118 88 0 54 32 208 27 35 0 39 129 85 34 31 0 27 32 34 35 26 0 60 74 45 22 38 0 2 91 220 56 6 0 200 161 65 155 179 0 21 20 26 22 26 
0 0 0 0 0 0 0 0 0 0 0 0 0 0 0 0 0 0 0 0 0 0 0 0 0 0 0 0 0 0 0 0 0 0 0 0 0 0 0 0 0 0 0 0 0 0 0 0 0 0 0 0 0 0 0 0 0 0 0 0 0 0 0 0 0 0 0 0 0 0 0 0 0 0 0 0 0 0 0 0 0 0 0 0 0 0 0 0 0 0 0 0 0 0 0 0 0 0 0 0 0 
65 38 0 100 148 0 10 5 233 255 157 0 154 58 26 140 57 0 0 2 119 213 219 0 16 49 63 210 0 0 222 225 219 201 211 0 226 187 106 49 87 0 223 215 171 100 56 0 9 28 5 234 241 0 68 50 27 35 70 0 166 224 155 17 20 0 24 8 0 54 255 0 255 190 4 44 45 0 123 197 255 166 8 0 152 213 214 184 194 0 0 45 23 92 90 0 11 201 239 45 11 
39 9 44 86 113 0 20 0 220 164 107 0 210 132 136 178 58 0 0 178 163 28 94 0 10 73 67 111 9 0 226 134 108 70 24 0 10 23 32 25 45 0 255 242 159 171 154 0 49 46 3 7 7 0 159 23 19 58 175 0 211 226 116 27 7 0 120 7 160 79 209 0 169 2 21 39 37 0 127 206 190 21 0 0 149 255 208 243 197 0 79 112 165 171 229 0 154 255 220 49 0 
131 69 87 137 146 0 113 171 179 145 32 0 230 101 0 234 61 0 71 250 255 74 251 0 52 254 68 101 5 0 210 139 87 56 0 0 0 1 17 47 46 0 131 51 0 33 46 0 58 54 10 0 44 0 183 119 0 236 188 0 238 243 63 0 21 0 232 229 203 69 64 0 0 6 26 33 30 0 143 195 171 26 0 0 49 238 198 221 191 0 199 241 237 255 251 0 163 217 196 124 155 
195 224 195 185 157 0 174 249 188 146 87 0 150 2 5 255 72 0 64 81 74 40 49 0 58 252 61 6 85 0 255 151 137 85 61 0 255 249 247 73 46 0 3 3 6 145 130 0 56 67 56 58 255 0 255 51 2 239 81 0 255 247 31 7 34 0 172 239 222 149 147 0 3 5 38 39 30 0 162 215 169 57 30 0 26 105 148 183 1 0 248 245 153 206 232 0 140 172 152 167 125 
155 255 163 156 134 0 132 248 226 164 130 0 129 21 119 234 161 0 30 33 29 31 30 0 63 91 14 21 109 0 175 146 94 50 51 0 236 220 37 49 49 0 151 65 38 143 34 0 47 43 52 44 48 0 149 1 16 82 58 0 180 161 125 104 115 0 47 117 94 43 49 0 22 32 39 37 32 0 211 231 155 127 114 0 0 73 130 52 1 0 217 194 70 106 172 0 85 94 98 145 155 
0 0 0 0 0 0 0 0 0 0 0 0 0 0 0 0 0 0 0 0 0 0 0 0 0 0 0 0 0 0 0 0 0 0 0 0 0 0 0 0 0 0 0 0 0 0 0 0 0 0 0 0 0 0 0 0 0 0 0 0 0 0 0 0 0 0 0 0 0 0 0 0 0 0 0 0 0 0 0 0 0 0 0 0 0 0 0 0 0 0 0 0 0 0 0 0 0 0 0 0 0 
31 106 132 250 189 0 3 43 255 51 2 0 35 16 126 123 49 0 170 98 42 50 126 0 7 204 213 135 0 0 255 242 96 53 33 0 98 0 1 58 107 0 232 227 183 122 91 0 46 35 0 212 7 0 37 16 166 224 221 0 216 151 5 37 54 0 135 9 154 235 254 0 160 11 34 40 28 0 164 199 189 40 22 0 26 28 32 27 32 0 31 78 90 97 87 0 34 255 22 8 12 
244 186 123 255 0 0 44 64 50 6 4 0 46 1 115 203 144 0 197 217 159 225 255 0 77 255 215 21 8 0 192 141 74 5 16 0 168 138 165 106 135 0 125 29 20 63 88 0 49 31 13 37 50 0 26 0 84 253 255 0 255 38 16 129 115 0 237 219 248 248 241 0 6 13 33 35 4 0 215 255 25 0 1 0 17 34 23 26 20 0 90 96 103 205 153 0 31 34 0 20 28 
79 144 174 156 36 0 48 49 39 24 15 0 0 0 222 221 151 0 191 200 65 120 229 0 187 238 153 10 221 0 239 202 91 76 76 0 238 251 254 211 139 0 0 1 10 66 58 0 56 48 241 252 254 0 22 1 93 254 208 0 229 22 15 97 25 0 142 215 239 143 195 0 3 26 39 35 10 0 181 167 7 60 67 0 10 21 9 0 5 0 102 83 75 45 41 0 38 21 3 15 3 
86 166 126 190 73 0 34 36 35 42 28 0 17 7 248 251 6 0 32 20 17 33 57 0 218 222 119 12 198 0 138 142 77 61 68 0 242 230 221 119 33 0 225 128 162 175 122 0 41 41 53 195 229 0 1 0 113 225 153 0 72 15 33 104 153 0 75 133 77 6 113 0 28 40 255 28 7 0 232 17 23 85 203 0 17 28 8 4 7 0 73 43 0 60 83 0 33 7 9 27 4 
5 117 171 70 26 0 45 66 27 9 0 0 160 210 255 239 5 0 0 6 6 30 39 0 238 186 152 92 210 0 44 42 0 14 26 0 48 22 28 45 26 0 224 236 255 224 108 0 0 4 23 33 41 0 23 8 81 188 95 0 0 21 68 117 139 0 12 0 4 1 42 0 36 32 35 0 1 0 197 4 41 44 118 0 21 255 4 1 7 0 104 94 99 180 255 0 7 9 15 24 2 
0 0 0 0 0 0 0 0 0 0 0 0 0 0 0 0 0 0 0 0 0 0 0 0 0 0 0 0 0 0 0 0 0 0 0 0 0 0 0 0 0 0 0 0 0 0 0 0 0 0 0 0 0 0 0 0 0 0 0 0 0 0 0 0 0 0 0 0 0 0 0 0 0 0 0 0 0 0 0 0 0 0 0 0 0 0 0 0 0 0 0 0 0 0 0 0 0 0 0 0 0 
0 82 155 156 152 0 34 22 211 255 243 0 237 72 21 149 56 0 0 1 5 212 219 0 2 43 55 191 4 0 227 227 221 129 126 0 230 138 90 17 41 0 242 240 167 86 54 0 7 17 42 8 250 0 72 61 23 39 75 0 46 52 46 6 3 0 106 0 7 19 255 0 255 172 11 36 53 0 71 175 195 255 26 0 191 236 240 209 190 0 0 26 27 65 80 0 36 201 255 149 0 
237 179 144 254 162 0 0 25 178 177 147 0 255 136 110 173 72 0 35 254 238 232 234 0 2 55 67 164 4 0 233 133 113 51 1 0 6 5 9 16 46 0 255 188 142 22 48 0 39 51 31 1 0 0 162 31 20 132 161 0 46 69 43 0 7 0 241 16 182 160 219 0 8 5 20 35 38 0 100 142 181 94 0 0 171 255 247 210 188 0 68 123 140 139 162 0 146 219 203 146 77 
220 129 231 152 30 0 192 205 199 165 128 0 252 105 2 84 63 0 72 255 254 72 185 0 20 192 144 125 0 0 252 144 98 52 0 0 11 0 33 47 48 0 99 2 0 22 34 0 67 72 60 57 61 0 255 121 0 164 169 0 56 71 29 0 2 0 236 213 165 48 43 0 0 2 27 38 40 0 123 167 137 74 24 0 26 151 196 225 188 0 148 154 153 156 163 0 142 207 208 138 139 
156 145 162 190 56 0 203 222 184 156 150 0 201 0 3 250 193 0 52 82 74 44 42 0 49 255 131 6 13 0 255 140 134 78 33 0 253 255 192 63 48 0 3 2 12 135 136 0 65 80 64 66 255 0 228 85 6 111 74 0 67 255 24 4 30 0 163 185 188 137 60 0 3 0 31 36 33 0 143 198 174 62 52 0 0 74 187 144 61 0 154 139 93 86 152 0 132 179 131 118 148 
37 45 129 22 1 0 139 209 212 164 146 0 162 22 109 249 177 0 24 30 30 30 31 0 56 194 46 7 94 0 141 119 51 17 6 0 224 86 39 49 53 0 156 98 44 138 131 0 45 46 45 50 61 0 130 0 21 46 63 0 47 42 8 17 27 0 44 47 42 33 28 0 27 29 36 33 30 0 162 232 174 87 83 0 15 53 150 75 42 0 255 141 61 104 138 0 66 151 131 124 127 
0 0 0 0 0 0 0 0 0 0 0 0 0 0 0 0 0 0 0 0 0 0 0 0 0 0 0 0 0 0 0 0 0 0 0 0 0 0 0 0 0 0 0 0 0 0 0 0 0 0 0 0 0 0 0 0 0 0 0 0 0 0 0 0 0 0 0 0 0 0 0 0 0 0 0 0 0 0 0 0 0 0 0 0 0 0 0 0 0 0 0 0 0 0 0 0 0 0 0 0 0 
58 0 104 181 133 0 32 7 196 255 245 0 217 73 10 136 64 0 0 2 4 211 219 0 6 41 52 238 2 0 231 230 241 200 221 0 235 179 100 13 56 0 236 242 171 210 54 0 1 23 38 4 246 0 73 60 27 40 86 0 42 60 57 4 2 0 36 3 0 5 255 0 255 233 9 34 50 0 89 173 196 254 33 0 188 194 221 219 163 0 0 53 21 90 111 0 0 41 254 29 5 
224 239 182 255 117 0 0 26 193 192 148 0 253 132 120 176 124 0 5 85 193 45 143 0 2 56 102 165 3 0 228 141 126 75 23 0 8 5 10 6 44 0 255 245 162 106 48 0 14 51 10 0 0 0 166 35 24 86 165 0 49 66 39 1 0 0 188 1 31 99 202 0 9 7 5 40 43 0 126 158 171 114 20 0 187 189 209 208 191 0 93 135 157 184 245 0 25 47 47 29 7 
132 157 233 139 91 0 144 214 198 168 143 0 253 104 2 121 127 0 53 250 255 67 196 0 0 237 240 108 3 0 255 144 95 68 0 0 1 0 12 49 41 0 121 47 4 2 46 0 51 62 44 6 46 0 249 116 0 164 255 0 54 70 26 0 2 0 237 215 200 124 48 0 7 0 20 38 43 0 132 169 167 53 0 0 37 181 255 195 197 0 209 228 244 236 255 0 27 43 39 27 31 
26 132 166 162 140 0 186 239 218 155 131 0 179 0 3 255 241 0 63 83 84 48 51 0 44 255 197 0 10 0 252 153 144 96 59 0 247 255 240 61 51 0 3 2 0 131 138 0 60 66 61 49 255 0 236 89 6 118 147 0 64 255 17 5 25 0 170 222 249 152 64 0 6 3 37 37 38 0 164 193 167 55 36 0 0 74 243 219 121 0 247 227 131 172 240 0 28 36 31 27 32 
58 132 178 94 58 0 136 231 226 169 131 0 139 6 64 254 191 0 34 36 38 39 34 0 54 239 43 5 87 0 160 148 89 58 44 0 233 223 44 47 54 0 150 87 3 142 128 0 38 43 45 44 54 0 159 4 11 55 73 0 56 48 13 21 32 0 42 109 53 39 33 0 18 28 37 42 33 0 184 226 156 101 100 0 60 106 163 104 35 0 241 192 81 99 181 0 19 27 24 29 31 
0 0 0 0 0 0 0 0 0 0 0 0 0 0 0 0 0 0 0 0 0 0 0 0 0 0 0 0 0 0 0 0 0 0 0 0 0 0 0 0 0 0 0 0 0 0 0 0 0 0 0 0 0 0 0 0 0 0 0 0 0 0 0 0 0 0 0 0 0 0 0 0 0 0 0 0 0 0 0 0 0 0 0 0 0 0 0 0 0 0 0 0 0 0 0 0 0 0 0 0 0 
64 54 121 180 123 0 9 4 222 255 169 0 245 79 57 148 66 0 1 0 141 213 212 0 1 44 59 254 0 0 228 231 168 148 142 0 201 148 101 45 72 0 229 206 172 34 49 0 10 51 13 244 255 0 72 53 34 37 87 0 48 75 42 3 0 0 102 4 0 129 254 0 255 2 5 49 46 0 82 163 204 255 0 0 174 248 235 223 172 0 21 32 0 80 94 0 34 240 255 0 38 
163 177 174 255 83 0 6 0 173 164 112 0 255 126 120 231 150 0 26 206 251 46 150 0 7 94 102 118 3 0 234 147 122 86 32 0 4 54 44 34 46 0 255 228 158 74 95 0 46 49 4 5 0 0 171 34 23 120 159 0 58 77 38 6 10 0 113 5 175 115 179 0 3 7 12 43 40 0 102 156 147 28 11 0 197 241 255 233 201 0 126 133 147 195 230 0 169 253 230 131 84 
35 117 150 214 71 0 120 183 154 151 85 0 233 103 0 248 81 0 56 255 254 53 90 0 50 253 131 98 6 0 255 147 102 70 0 0 7 0 9 46 44 0 119 33 0 29 62 0 57 61 56 27 51 0 250 116 5 207 255 0 69 77 32 2 9 0 122 113 160 52 33 0 0 0 30 39 32 0 112 169 128 42 20 0 32 240 246 204 237 0 193 219 212 222 237 0 190 243 190 160 187 
36 139 185 150 97 0 159 210 179 152 100 0 211 7 2 251 238 0 48 85 65 38 41 0 63 255 62 17 105 0 201 154 139 79 59 0 255 234 64 63 53 0 59 3 0 165 158 0 54 66 63 47 240 0 228 97 7 235 165 0 79 255 6 7 29 0 146 171 183 135 93 0 2 5 32 39 28 0 124 195 137 27 39 0 33 168 241 214 52 0 238 215 115 163 218 0 188 217 147 147 172 
0 123 183 143 48 0 107 196 191 150 150 0 166 59 178 244 187 0 29 33 34 37 34 0 62 207 25 68 97 0 154 144 84 44 41 0 195 123 29 37 47 0 172 101 38 164 145 0 42 54 49 51 56 0 148 0 28 89 75 0 58 218 39 24 35 0 29 96 39 28 21 0 28 29 27 33 29 0 153 207 138 42 77 0 72 100 227 78 0 0 254 168 66 157 169 0 119 177 134 170 199 
0 0 0 0 0 0 0 0 0 0 0 0 0 0 0 0 0 0 0 0 0 0 0 0 0 0 0 0 0 0 0 0 0 0 0 0 0 0 0 0 0 0 0 0 0 0 0 0 0 0 0 0 0 0 0 0 0 0 0 0 0 0 0 0 0 0 0 0 0 0 0 0 0 0 0 0 0 0 0 0 0 0 0 0 0 0 0 0 0 0 0 0 0 0 0 0 0 0 0 0 0 
240 247 246 248 250 0 18 19 43 5 0 0 19 0 86 67 18 0 234 77 39 179 255 0 162 255 241 133 65 0 246 253 255 244 158 0 255 228 191 219 229 0 219 215 233 164 73 0 44 7 10 244 255 0 58 17 79 192 197 0 52 6 2 3 14 0 4 0 16 82 120 0 255 167 37 32 7 0 255 187 17 39 58 0 10 49 0 15 54 0 77 28 31 44 0 0 78 7 24 0 28 
240 244 254 254 242 0 7 32 9 4 14 0 25 22 154 142 34 0 186 157 0 6 108 0 124 245 153 139 41 0 239 187 73 57 62 0 69 2 17 17 73 0 255 243 242 217 138 0 18 7 10 20 9 0 151 27 77 191 191 0 37 0 4 10 17 0 120 91 36 105 230 0 184 13 44 28 0 0 254 232 51 13 93 0 207 216 3 13 49 0 47 42 70 85 54 0 251 199 23 52 27 
226 213 164 199 176 0 3 40 5 5 14 0 38 7 64 185 74 0 166 223 110 108 232 0 117 198 36 17 0 0 93 55 28 0 17 0 61 35 39 82 49 0 198 145 40 108 43 0 51 0 5 4 6 0 34 9 48 255 173 0 36 3 11 8 10 0 170 213 180 148 255 0 6 8 37 26 1 0 192 58 0 28 70 0 197 240 176 188 175 0 95 98 159 255 235 0 255 245 123 164 1 
125 29 52 102 107 0 58 46 27 3 12 0 24 2 255 240 103 0 199 221 159 176 248 0 129 134 63 22 216 0 182 95 62 6 39 0 201 192 208 177 64 0 11 6 0 30 2 0 49 52 0 20 205 0 39 0 32 215 178 0 61 6 15 10 11 0 155 209 205 139 159 0 7 16 33 23 0 0 180 72 29 90 45 0 192 213 166 204 180 0 110 103 154 205 222 0 234 233 192 188 44 
48 0 20 56 87 0 255 53 38 35 36 0 29 26 225 237 78 0 84 72 44 41 41 0 126 72 107 49 251 0 201 167 85 68 74 0 204 147 184 211 0 0 226 136 125 142 84 0 58 77 56 207 208 0 99 7 74 212 175 0 69 254 34 36 22 0 148 167 101 79 167 0 8 22 39 36 33 0 244 186 142 181 174 0 190 255 224 193 128 0 106 77 62 25 62 0 202 164 144 179 29 
0 0 0 0 0 0 0 0 0 0 0 0 0 0 0 0 0 0 0 0 0 0 0 0 0 0 0 0 0 0 0 0 0 0 0 0 0 0 0 0 0 0 0 0 0 0 0 0 0 0 0 0 0 0 0 0 0 0 0 0 0 0 0 0 0 0 0 0 0 0 0 0 0 0 0 0 0 0 0 0 0 0 0 0 0 0 0 0 0 0 0 0 0 0 0 0 0 0 0 0 0 
181 188 172 22 66 0 6 255 249 0 20 0 60 67 47 74 152 0 146 255 111 145 139 0 0 144 144 143 231 0 254 148 123 241 126 0 130 150 0 6 13 0 166 189 143 136 102 0 50 0 64 52 0 0 79 53 103 61 255 0 52 11 38 40 9 0 231 23 122 78 224 0 227 163 255 35 7 0 137 255 248 34 77 0 186 222 158 194 227 0 0 183 202 171 79 0 255 33 24 32 23 
75 28 0 56 249 0 47 252 24 15 25 0 55 26 117 188 135 0 234 253 207 246 92 0 203 138 124 237 164 0 164 144 104 161 81 0 153 138 125 25 17 0 127 114 180 197 94 0 44 21 60 60 63 0 84 37 23 104 149 0 32 23 62 28 0 0 253 219 152 32 255 0 161 11 244 28 3 0 220 185 0 92 38 0 153 255 141 209 227 0 181 225 168 133 120 0 41 16 31 39 1 
134 39 35 135 219 0 45 40 11 40 33 0 55 0 248 252 126 0 248 196 74 77 52 0 205 19 204 254 20 0 149 138 92 87 69 0 255 228 213 134 3 0 81 8 31 87 2 0 37 63 62 255 243 0 51 24 73 158 25 0 2 45 234 26 0 0 233 177 42 182 193 0 1 33 34 22 28 0 188 28 147 203 23 0 109 185 69 218 52 0 190 88 41 116 125 0 33 0 32 32 0 
171 255 93 152 208 0 32 29 35 44 25 0 68 3 246 251 147 0 123 21 36 37 51 0 134 2 251 219 41 0 124 142 80 73 57 0 254 215 157 202 61 0 71 7 132 39 0 0 31 62 45 55 47 0 2 8 36 103 0 0 4 255 51 14 24 0 197 53 41 171 109 0 33 31 36 3 26 0 152 172 227 221 72 0 120 104 53 167 0 0 79 47 101 113 149 0 6 12 31 29 2 
137 115 119 173 203 0 18 19 28 16 4 0 77 130 254 202 158 0 0 10 19 33 11 0 110 176 241 148 164 0 116 0 14 30 23 0 138 156 164 78 0 0 127 192 255 35 49 0 11 24 31 42 40 0 8 35 64 50 132 0 11 250 26 12 33 0 110 0 2 9 12 0 35 22 14 0 13 0 106 142 154 104 60 0 106 80 59 56 64 0 180 250 198 170 255 0 0 16 30 8 0 
0 0 0 0 0 0 0 0 0 0 0 0 0 0 0 0 0 0 0 0 0 0 0 0 0 0 0 0 0 0 0 0 0 0 0 0 0 0 0 0 0 0 0 0 0 0 0 0 0 0 0 0 0 0 0 0 0 0 0 0 0 0 0 0 0 0 0 0 0 0 0 0 0 0 0 0 0 0 0 0 0 0 0 0 0 0 0 0 0 0 0 0 0 0 0 0 0 0 0 0 0 
156 5 60 216 91 0 3 10 254 251 2 0 70 10 46 56 56 0 94 28 54 59 213 0 0 184 214 183 1 0 229 240 251 84 103 0 185 5 0 21 48 0 249 253 219 72 44 0 48 58 0 246 247 0 68 15 159 192 226 0 77 88 17 10 20 0 2 9 3 229 235 0 232 10 13 54 47 0 135 199 255 32 25 0 2 28 32 34 28 0 0 3 59 72 72 0 26 255 41 0 6 
162 0 84 215 157 0 12 51 55 44 0 0 61 3 117 222 68 0 179 113 81 127 254 0 5 240 243 0 7 0 238 204 80 37 0 0 7 3 1 56 53 0 225 146 37 8 86 0 57 52 10 12 56 0 46 11 82 253 254 0 86 76 8 0 49 0 196 170 251 255 218 0 10 8 34 46 38 0 164 243 196 0 2 0 4 29 28 29 28 0 69 89 87 100 99 0 35 247 19 0 29 
129 50 60 254 142 0 35 50 46 26 3 0 41 0 150 249 198 0 74 82 60 38 208 0 194 251 206 4 108 0 255 138 77 68 62 0 202 214 255 57 54 0 4 2 0 56 81 0 58 47 51 252 255 0 51 4 44 254 254 0 98 37 4 34 12 0 163 236 220 66 153 0 9 5 39 47 28 0 192 216 21 52 58 0 3 30 29 19 6 0 93 94 79 80 75 0 36 38 8 10 23 
21 61 63 149 93 0 25 44 34 30 3 0 67 65 241 252 68 0 28 70 26 26 36 0 213 255 32 1 191 0 246 97 79 53 52 0 243 242 194 58 45 0 1 7 4 101 92 0 42 50 33 45 248 0 76 7 83 254 207 0 95 8 5 0 16 0 132 206 128 0 101 0 8 34 255 42 2 0 201 230 3 24 31 0 4 33 32 13 0 0 71 54 0 57 90 0 38 40 8 20 33 
47 70 84 62 31 0 17 67 41 29 4 0 73 149 255 250 52 0 0 2 7 13 37 0 226 218 5 109 196 0 38 66 41 21 31 0 73 13 32 47 48 0 217 83 100 255 174 0 29 8 27 36 46 0 28 0 140 223 71 0 54 27 255 31 41 0 25 31 0 0 1 0 33 35 39 32 0 0 245 225 25 44 100 0 12 255 26 4 6 0 67 53 56 232 255 0 25 12 12 23 6 
0 0 0 0 0 0 0 0 0 0 0 0 0 0 0 0 0 0 0 0 0 0 0 0 0 0 0 0 0 0 0 0 0 0 0 0 0 0 0 0 0 0 0 0 0 0 0 0 0 0 0 0 0 0 0 0 0 0 0 0 0 0 0 0 0 0 0 0 0 0 0 0 0 0 0 0 0 0 0 0 0 0 0 0 0 0 0 0 0 0 0 0 0 0 0 0 0 0 0 0 0 
0 87 42 71 64 0 0 1 50 255 39 0 173 42 31 72 61 0 6 0 19 208 211 0 5 46 61 222 3 0 233 231 233 148 155 0 228 118 20 14 26 0 255 247 180 98 51 0 13 48 13 8 216 0 67 36 23 36 86 0 160 239 174 37 0 0 4 2 2 106 255 0 255 10 14 49 45 0 98 155 178 255 35 0 196 228 235 209 214 0 3 0 42 112 123 0 38 234 255 13 0 
202 170 176 223 110 0 1 19 53 39 2 0 255 117 136 163 62 0 23 92 74 43 180 0 6 206 205 98 6 0 226 132 82 53 0 0 4 6 5 21 44 0 251 213 135 16 53 0 47 48 2 0 6 0 78 30 21 179 194 0 202 254 112 12 12 0 177 0 176 202 214 0 7 6 28 43 37 0 79 157 167 42 11 0 218 244 235 235 254 0 122 167 198 225 246 0 173 248 173 41 56 
103 128 205 255 140 0 39 48 41 29 2 0 226 94 7 233 70 0 83 233 235 87 255 0 53 255 234 7 0 0 248 145 86 67 3 0 0 10 29 52 51 0 72 4 1 30 46 0 53 49 22 47 44 0 160 109 0 246 255 0 252 230 33 24 74 0 203 238 237 85 61 0 0 5 36 42 31 0 124 150 120 0 12 0 0 223 202 187 186 0 192 255 237 249 242 0 162 196 110 95 136 
61 131 167 131 71 0 37 48 40 27 25 0 140 0 172 254 77 0 81 84 67 44 46 0 69 253 61 3 53 0 255 161 137 79 63 0 250 254 247 62 49 0 5 0 7 139 123 0 57 59 57 202 255 0 221 5 5 227 95 0 254 202 39 112 66 0 152 233 170 34 81 0 0 12 38 45 33 0 124 176 98 23 34 0 17 147 230 160 69 0 244 210 104 127 218 0 164 172 75 116 116 
19 52 132 95 33 0 30 49 39 32 28 0 151 9 219 253 76 0 28 35 25 30 46 0 69 229 8 70 143 0 147 105 77 42 43 0 180 77 44 54 49 0 168 84 64 172 124 0 38 39 37 41 54 0 128 6 22 70 46 0 169 97 53 75 140 0 36 113 39 37 24 0 23 38 44 38 23 0 161 192 129 67 78 0 42 143 165 77 63 0 220 127 75 179 210 0 93 82 6 131 112 
0 0 0 0 0 0 0 0 0 0 0 0 0 0 0 0 0 0 0 0 0 0 0 0 0 0 0 0 0 0 0 0 0 0 0 0 0 0 0 0 0 0 0 0 0 0 0 0 0 0 0 0 0 0 0 0 0 0 0 0 0 0 0 0 0 0 0 0 0 0 0 0 0 0 0 0 0 0 0 0 0 0 0 0 0 0 0 0 0 0 0 0 0 0 0 0 0 0 0 0 0 
92 64 113 122 120 0 0 0 59 255 31 0 253 79 119 154 61 0 0 0 110 204 212 0 1 45 61 238 3 0 231 229 159 132 131 0 185 119 91 25 72 0 255 203 174 32 54 0 17 45 3 220 222 0 73 48 27 34 140 0 58 81 44 2 0 0 28 0 0 159 255 0 254 6 7 42 46 0 24 47 61 255 7 0 181 186 210 234 188 0 0 11 27 89 95 0 5 255 42 0 3 
110 115 195 232 117 0 1 33 48 35 13 0 243 133 120 186 159 0 27 255 242 51 215 0 1 224 121 93 0 0 230 146 95 67 0 0 0 20 45 41 48 0 249 179 144 19 154 0 47 50 6 0 2 0 168 30 28 165 178 0 71 79 37 6 2 0 123 5 230 171 210 0 2 3 24 44 40 0 26 48 51 0 4 0 198 238 254 220 234 0 111 143 155 155 180 0 25 242 38 17 6 
71 133 181 255 109 0 46 50 42 25 12 0 228 100 0 254 87 0 67 252 253 65 162 0 59 248 140 95 75 0 255 145 105 77 3 0 12 13 31 54 50 0 71 1 0 38 67 0 57 49 48 43 57 0 246 128 0 255 187 0 81 82 22 1 1 0 60 243 186 42 39 0 4 0 33 41 32 0 37 46 37 9 2 0 11 227 210 178 197 0 162 167 166 166 174 0 35 34 28 28 27 
45 107 205 164 101 0 34 43 33 33 30 0 156 4 170 255 80 0 58 86 65 32 37 0 63 255 54 78 111 0 177 156 138 84 64 0 255 218 89 65 57 0 64 0 0 175 152 0 63 64 56 54 255 0 232 99 15 243 82 0 86 91 0 15 19 0 156 189 165 37 94 0 1 17 40 37 34 0 40 60 39 15 14 0 33 129 192 209 31 0 169 142 58 112 160 0 25 33 22 22 28 
7 72 164 119 0 0 24 56 46 38 30 0 184 96 211 249 159 0 23 25 29 25 35 0 63 165 12 88 130 0 145 137 72 51 42 0 145 60 43 53 53 0 174 95 74 187 148 0 37 42 46 48 55 0 110 4 24 82 64 0 60 41 255 28 45 0 32 98 36 33 27 0 33 29 38 37 22 0 48 61 44 19 33 0 80 145 141 43 0 0 255 134 86 134 147 0 14 20 19 24 27 
