P2
5 5
255
0 49 43 72 65 
130 56 66 71 76 
255 152 110 132 116 
184 200 156 153 114 
135 133 138 140 106 
