P2
5 5
255
93 0 134 207 211 
227 228 200 255 214 
223 200 186 198 180 
95 110 133 149 111 
100 102 124 77 54 
