P2
5 5
255
64 54 121 180 123 
163 177 174 255 83 
35 117 150 214 71 
36 139 185 150 97 
0 123 183 143 48 
