P2
5 5
255
181 188 172 22 66 
75 28 0 56 249 
134 39 35 135 219 
171 255 93 152 208 
137 115 119 173 203 
