P2
5 5
255
100 114 148 203 159 
145 124 249 229 174 
88 91 180 254 177 
10 114 215 156 101 
0 117 204 177 54 
