P2
5 5
255
31 106 132 250 189 
244 186 123 255 0 
79 144 174 156 36 
86 166 126 190 73 
5 117 171 70 26 
