P2
5 5
255
155 99 84 161 220 
111 1 20 185 230 
39 0 56 208 255 
186 179 163 240 243 
195 206 239 237 239 
