P2
5 5
255
53 20 33 52 0 
221 203 149 147 82 
255 192 211 180 140 
60 126 46 146 71 
32 30 98 80 89 
