P2
5 5
255
0 82 155 156 152 
237 179 144 254 162 
220 129 231 152 30 
156 145 162 190 56 
37 45 129 22 1 
