P2
5 5
255
85 46 61 121 80 
255 207 180 214 103 
95 103 181 147 91 
26 121 133 108 91 
0 103 153 119 33 
