P2
5 5
255
156 5 60 216 91 
162 0 84 215 157 
129 50 60 254 142 
21 61 63 149 93 
47 70 84 62 31 
