P2
5 5
255
60 67 47 74 152 
55 26 117 188 135 
55 0 248 252 126 
68 3 246 251 147 
77 130 254 202 158 
