P2
5 5
255
246 253 255 244 158 
239 187 73 57 62 
93 55 28 0 17 
182 95 62 6 39 
201 167 85 68 74 
