P2
5 5
255
6 42 55 228 5 
0 62 65 168 11 
7 198 146 127 1 
54 255 106 0 27 
58 149 47 45 86 
