P2
5 5
255
125 179 220 188 161 
193 215 244 206 221 
63 178 212 255 217 
51 0 166 220 108 
19 73 172 143 3 
