P2
5 5
255
0 1 5 212 219 
35 254 238 232 234 
72 255 254 72 185 
52 82 74 44 42 
24 30 30 30 31 
