P2
5 5
255
50 0 64 52 0 
44 21 60 60 63 
37 63 62 255 243 
31 62 45 55 47 
11 24 31 42 40 
