P2
5 5
255
236 242 171 210 54 
255 245 162 106 48 
121 47 4 2 46 
3 2 0 131 138 
150 87 3 142 128 
