P2
5 5
255
0 3 59 72 72 
69 89 87 100 99 
93 94 79 80 75 
71 54 0 57 90 
67 53 56 232 255 
