P2
5 5
255
28 249 204 50 193 
117 246 107 0 234 
195 182 74 93 243 
255 118 123 225 247 
209 115 176 168 172 
