P2
5 5
255
34 255 22 8 12 
31 34 0 20 28 
38 21 3 15 3 
33 7 9 27 4 
7 9 15 24 2 
