P2
5 5
255
160 239 174 37 0 
202 254 112 12 12 
252 230 33 24 74 
254 202 39 112 66 
169 97 53 75 140 
