P2
5 5
255
0 11 27 89 95 
111 143 155 155 180 
162 167 166 166 174 
169 142 58 112 160 
255 134 86 134 147 
