P2
5 5
255
0 0 110 204 212 
27 255 242 51 215 
67 252 253 65 162 
58 86 65 32 37 
23 25 29 25 35 
