P2
5 5
255
0 184 214 183 1 
5 240 243 0 7 
194 251 206 4 108 
213 255 32 1 191 
226 218 5 109 196 
