P2
5 5
255
106 0 7 19 255 
241 16 182 160 219 
236 213 165 48 43 
163 185 188 137 60 
44 47 42 33 28 
