P2
5 5
255
217 73 10 136 64 
253 132 120 176 124 
253 104 2 121 127 
179 0 3 255 241 
139 6 64 254 191 
