P2
5 5
255
42 60 57 4 2 
49 66 39 1 0 
54 70 26 0 2 
64 255 17 5 25 
56 48 13 21 32 
