P2
5 5
255
10 49 0 15 54 
207 216 3 13 49 
197 240 176 188 175 
192 213 166 204 180 
190 255 224 193 128 
