P2
5 5
255
154 58 26 140 57 
210 132 136 178 58 
230 101 0 234 61 
150 2 5 255 72 
129 21 119 234 161 
