P2
5 5
255
28 6 21 127 205 
118 208 153 165 204 
190 255 223 185 153 
153 165 162 159 13 
64 73 97 94 0 
