P2
5 5
255
58 17 79 192 197 
151 27 77 191 191 
34 9 48 255 173 
39 0 32 215 178 
99 7 74 212 175 
