P2
5 5
255
17 48 7 218 229 
47 44 3 5 0 
50 52 0 16 49 
56 59 49 46 255 
41 42 42 49 59 
