P2
5 5
255
58 81 44 2 0 
71 79 37 6 2 
81 82 22 1 1 
86 91 0 15 19 
60 41 255 28 45 
