P2
5 5
255
255 247 180 98 51 
251 213 135 16 53 
72 4 1 30 46 
5 0 7 139 123 
168 84 64 172 124 
