P2
5 5
255
5 255 42 0 3 
25 242 38 17 6 
35 34 28 28 27 
25 33 22 22 28 
14 20 19 24 27 
