P2
5 5
255
71 67 21 22 53 
186 110 35 34 64 
255 82 1 37 157 
151 1 34 159 183 
50 0 113 162 119 
