P2
5 5
255
10 5 233 255 157 
20 0 220 164 107 
113 171 179 145 32 
174 249 188 146 87 
132 248 226 164 130 
