P2
5 5
255
234 77 39 179 255 
186 157 0 6 108 
166 223 110 108 232 
199 221 159 176 248 
84 72 44 41 41 
