P2
5 5
255
222 221 198 120 119 
232 150 113 69 16 
255 136 102 53 5 
252 133 126 87 34 
146 124 37 3 0 
