P2
5 5
255
29 4 0 250 255 
24 0 131 114 216 
56 242 197 56 44 
164 218 165 83 121 
39 129 85 34 31 
