P2
5 5
255
3 43 255 51 2 
44 64 50 6 4 
48 49 39 24 15 
34 36 35 42 28 
45 66 27 9 0 
