P2
5 5
255
74 60 27 31 75 
173 39 27 120 158 
254 125 1 184 208 
226 95 2 177 121 
151 0 22 62 62 
