P2
5 5
255
28 51 22 255 240 
43 11 192 193 75 
227 193 218 137 11 
172 200 185 131 160 
0 121 164 214 160 
