P2
5 5
255
255 203 174 32 54 
249 179 144 19 154 
71 1 0 38 67 
64 0 0 175 152 
174 95 74 187 148 
