P2
5 5
255
9 28 5 234 241 
49 46 3 7 7 
58 54 10 0 44 
56 67 56 58 255 
47 43 52 44 48 
