P2
5 5
255
109 180 146 9 15 
157 246 134 0 9 
171 254 33 23 118 
235 93 20 60 109 
85 79 74 77 132 
