P2
5 5
255
0 0 36 207 211 
23 250 250 229 216 
56 255 251 61 107 
35 72 69 40 40 
25 24 25 29 31 
