P2
5 5
255
19 0 86 67 18 
25 22 154 142 34 
38 7 64 185 74 
24 2 255 240 103 
29 26 225 237 78 
