P2
5 5
255
219 215 233 164 73 
255 243 242 217 138 
198 145 40 108 43 
11 6 0 30 2 
226 136 125 142 84 
