P2
5 5
255
255 4 22 32 26 
7 1 15 24 29 
8 21 28 36 27 
39 35 42 36 31 
39 35 9 0 4 
