P2
5 5
255
170 98 42 50 126 
197 217 159 225 255 
191 200 65 120 229 
32 20 17 33 57 
0 6 6 30 39 
