P2
5 5
255
232 255 237 147 90 
169 176 213 165 167 
0 32 161 157 208 
43 79 85 164 180 
49 123 201 198 202 
