P2
5 5
255
18 19 43 5 0 
7 32 9 4 14 
3 40 5 5 14 
58 46 27 3 12 
255 53 38 35 36 
