P2
5 5
255
191 236 240 209 190 
171 255 247 210 188 
26 151 196 225 188 
0 74 187 144 61 
15 53 150 75 42 
