P2
5 5
255
125 0 5 23 255 
244 21 221 168 212 
228 88 166 69 54 
158 182 181 151 129 
40 45 34 29 26 
