P2
5 5
255
16 3 0 3 0 
40 41 18 16 194 
51 59 56 255 254 
40 58 64 234 218 
11 0 32 32 42 
