P2
5 5
255
14 255 40 0 13 
33 253 33 5 8 
30 41 32 24 29 
32 32 23 27 29 
21 20 26 22 26 
