P2
5 5
255
219 104 73 74 115 
103 36 54 137 144 
64 0 76 169 70 
169 85 254 255 130 
179 194 213 174 148 
