P2
5 5
255
77 59 27 31 59 
128 44 23 27 210 
172 56 5 107 255 
221 6 0 37 158 
135 4 27 81 65 
