P2
5 5
255
46 52 46 6 3 
46 69 43 0 7 
56 71 29 0 2 
67 255 24 4 30 
47 42 8 17 27 
