P2
5 5
255
38 234 255 13 0 
173 248 173 41 56 
162 196 110 95 136 
164 172 75 116 116 
93 82 6 131 112 
