P2
5 5
255
13 48 13 8 216 
47 48 2 0 6 
53 49 22 47 44 
57 59 57 202 255 
38 39 37 41 54 
