P2
5 5
255
52 45 26 0 11 
48 48 29 19 32 
8 18 16 18 30 
6 19 27 34 49 
9 35 254 46 49 
