P2
5 5
255
0 1 50 255 39 
1 19 53 39 2 
39 48 41 29 2 
37 48 40 27 25 
30 49 39 32 28 
