P2
5 5
255
226 187 106 49 87 
10 23 32 25 45 
0 1 17 47 46 
255 249 247 73 46 
236 220 37 49 49 
