P2
5 5
255
28 0 0 159 255 
123 5 230 171 210 
60 243 186 42 39 
156 189 165 37 94 
32 98 36 33 27 
