P2
5 5
255
135 199 255 32 25 
164 243 196 0 2 
192 216 21 52 58 
201 230 3 24 31 
245 225 25 44 100 
