P2
5 5
255
255 187 17 39 58 
254 232 51 13 93 
192 58 0 28 70 
180 72 29 90 45 
244 186 142 181 174 
