P2
5 5
255
24 8 0 54 255 
120 7 160 79 209 
232 229 203 69 64 
172 239 222 149 147 
47 117 94 43 49 
