P2
5 5
255
0 41 254 29 5 
25 47 47 29 7 
27 43 39 27 31 
28 36 31 27 32 
19 27 24 29 31 
