P2
5 5
255
89 22 226 250 241 
119 204 255 176 254 
137 216 133 127 237 
110 124 104 126 183 
37 3 0 52 57 
