P2
5 5
255
232 10 13 54 47 
10 8 34 46 38 
9 5 39 47 28 
8 34 255 42 2 
33 35 39 32 0 
