P2
5 5
255
1 1 187 207 2 
5 196 236 208 0 
3 231 255 68 7 
30 241 228 0 51 
56 235 22 79 155 
