P2
5 5
255
5 10 40 36 7 
255 57 30 22 0 
58 46 31 27 28 
31 36 42 39 32 
3 27 39 31 24 
