P2
5 5
255
248 227 125 32 94 
133 12 37 31 73 
0 51 46 58 68 
246 254 226 92 49 
243 244 123 40 52 
