P2
5 5
255
227 163 255 35 7 
161 11 244 28 3 
1 33 34 22 28 
33 31 36 3 26 
35 22 14 0 13 
