P2
5 5
255
55 36 239 255 36 
41 28 31 50 50 
32 49 50 200 220 
6 23 27 33 8 
4 9 21 38 0 
