P2
5 5
255
1 4 0 29 165 
255 147 214 215 200 
216 239 249 179 90 
148 198 150 27 25 
27 26 24 15 15 
