P2
5 5
255
130 150 0 6 13 
153 138 125 25 17 
255 228 213 134 3 
254 215 157 202 61 
138 156 164 78 0 
