P2
5 5
255
44 7 10 244 255 
18 7 10 20 9 
51 0 5 4 6 
49 52 0 20 205 
58 77 56 207 208 
