P2
5 5
255
79 53 103 61 255 
84 37 23 104 149 
51 24 73 158 25 
2 8 36 103 0 
8 35 64 50 132 
