P2
5 5
255
89 173 196 254 33 
126 158 171 114 20 
132 169 167 53 0 
164 193 167 55 36 
184 226 156 101 100 
