P2
5 5
255
255 62 116 151 64 
232 126 137 185 70 
219 105 0 252 70 
143 3 165 246 78 
145 10 184 223 166 
