P2
5 5
255
255 242 96 53 33 
192 141 74 5 16 
239 202 91 76 76 
138 142 77 61 68 
44 42 0 14 26 
