P2
5 5
255
0 2 119 213 219 
0 178 163 28 94 
71 250 255 74 251 
64 81 74 40 49 
30 33 29 31 30 
