P2
5 5
255
166 189 143 136 102 
127 114 180 197 94 
81 8 31 87 2 
71 7 132 39 0 
127 192 255 35 49 
