P2
5 5
255
28 147 194 255 74 
0 134 178 124 29 
75 129 144 49 16 
95 156 128 31 48 
150 216 216 73 114 
