P2
5 5
255
231 23 122 78 224 
253 219 152 32 255 
233 177 42 182 193 
197 53 41 171 109 
110 0 2 9 12 
