P2
5 5
255
254 148 123 241 126 
164 144 104 161 81 
149 138 92 87 69 
124 142 80 73 57 
116 0 14 30 23 
