P2
5 5
255
251 253 243 226 94 
145 89 30 59 53 
1 6 10 23 0 
252 156 98 17 17 
244 255 231 156 161 
