P2
5 5
255
242 249 92 87 89 
254 156 71 82 71 
206 154 42 46 57 
72 134 0 10 48 
77 26 4 7 51 
