P2
5 5
255
11 27 32 18 255 
10 45 34 9 2 
53 46 57 0 47 
49 68 60 52 240 
46 54 43 48 57 
