P2
5 5
255
3 0 42 112 123 
122 167 198 225 246 
192 255 237 249 242 
244 210 104 127 218 
220 127 75 179 210 
