P2
5 5
255
68 15 159 192 226 
46 11 82 253 254 
51 4 44 254 254 
76 7 83 254 207 
28 0 140 223 71 
