P2
5 5
255
77 28 31 44 0 
47 42 70 85 54 
95 98 159 255 235 
110 103 154 205 222 
106 77 62 25 62 
