P2
5 5
255
37 16 166 224 221 
26 0 84 253 255 
22 1 93 254 208 
1 0 113 225 153 
23 8 81 188 95 
