P2
5 5
255
255 10 14 49 45 
7 6 28 43 37 
0 5 36 42 31 
0 12 38 45 33 
23 38 44 38 23 
