P2
5 5
255
39 1 92 240 63 
0 58 212 200 5 
4 252 236 175 7 
38 255 249 52 19 
42 223 87 41 87 
