P2
5 5
255
216 151 5 37 54 
255 38 16 129 115 
229 22 15 97 25 
72 15 33 104 153 
0 21 68 117 139 
