P2
5 5
255
228 231 168 148 142 
234 147 122 86 32 
255 147 102 70 0 
201 154 139 79 59 
154 144 84 44 41 
