P2
5 5
255
27 92 0 59 106 
67 151 163 131 177 
172 240 239 223 228 
224 254 164 133 160 
200 139 80 71 131 
