P2
5 5
255
233 237 238 242 234 
234 128 98 70 63 
195 91 84 50 0 
255 146 108 91 58 
188 145 107 71 43 
