P2
5 5
255
2 9 3 229 235 
196 170 251 255 218 
163 236 220 66 153 
132 206 128 0 101 
25 31 0 0 1 
