P2
5 5
255
17 45 3 220 222 
47 50 6 0 2 
57 49 48 43 57 
63 64 56 54 255 
37 42 46 48 55 
