P2
5 5
255
0 2 4 211 219 
5 85 193 45 143 
53 250 255 67 196 
63 83 84 48 51 
34 36 38 39 34 
