P2
5 5
255
71 175 195 255 26 
100 142 181 94 0 
123 167 137 74 24 
143 198 174 62 52 
162 232 174 87 83 
