P2
5 5
255
78 7 24 0 28 
251 199 23 52 27 
255 245 123 164 1 
234 233 192 188 44 
202 164 144 179 29 
