P2
5 5
255
46 35 0 212 7 
49 31 13 37 50 
56 48 241 252 254 
41 41 53 195 229 
0 4 23 33 41 
