P2
5 5
255
243 234 162 149 133 
255 155 113 102 7 
169 139 103 69 0 
171 163 146 84 67 
167 156 108 51 61 
