P2
5 5
255
55 3 0 32 164 
187 16 158 192 164 
225 207 255 224 186 
194 207 209 151 117 
114 111 92 39 35 
