P2
5 5
255
34 57 73 255 0 
34 61 50 0 0 
40 57 34 1 5 
51 75 35 3 8 
60 74 45 22 38 
