P2
5 5
255
232 227 183 122 91 
125 29 20 63 88 
0 1 10 66 58 
225 128 162 175 122 
224 236 255 224 108 
