P2
5 5
255
0 2 5 111 131 
148 181 193 187 231 
188 207 204 189 185 
189 179 110 71 107 
172 150 138 146 254 
