P2
5 5
255
51 69 23 4 1 
69 68 4 0 1 
71 60 5 0 2 
255 64 3 0 17 
54 32 208 27 35 
