P2
5 5
255
229 240 251 84 103 
238 204 80 37 0 
255 138 77 68 62 
246 97 79 53 52 
38 66 41 21 31 
