P2
5 5
255
164 199 189 40 22 
215 255 25 0 1 
181 167 7 60 67 
232 17 23 85 203 
197 4 41 44 118 
