P2
5 5
255
227 227 221 129 126 
233 133 113 51 1 
252 144 98 52 0 
255 140 134 78 33 
141 119 51 17 6 
