P2
5 5
255
185 135 23 76 112 
220 176 54 255 239 
194 60 8 101 141 
9 10 0 10 57 
8 9 2 20 11 
