P2
5 5
255
255 5 12 48 43 
5 3 33 43 38 
0 6 34 45 34 
2 12 32 39 27 
27 32 34 35 26 
