P2
5 5
255
173 42 31 72 61 
255 117 136 163 62 
226 94 7 233 70 
140 0 172 254 77 
151 9 219 253 76 
