P2
5 5
255
0 183 202 171 79 
181 225 168 133 120 
190 88 41 116 125 
79 47 101 113 149 
180 250 198 170 255 
