P2
5 5
255
222 225 219 201 211 
226 134 108 70 24 
210 139 87 56 0 
255 151 137 85 61 
175 146 94 50 51 
