P2
5 5
255
4 0 16 82 120 
120 91 36 105 230 
170 213 180 148 255 
155 209 205 139 159 
148 167 101 79 167 
