P2
5 5
255
139 172 255 195 168 
156 253 238 184 191 
64 213 194 227 214 
7 176 218 146 0 
2 91 220 56 6 
