P2
5 5
255
152 213 214 184 194 
149 255 208 243 197 
49 238 198 221 191 
26 105 148 183 1 
0 73 130 52 1 
