P2
5 5
255
250 138 36 136 61 
252 138 127 185 146 
255 112 1 151 71 
234 0 12 254 233 
203 32 187 228 178 
