P2
5 5
255
217 141 98 20 52 
45 23 38 6 38 
0 4 42 49 37 
252 255 125 66 41 
216 193 27 31 31 
