P2
5 5
255
0 29 254 24 0 
6 36 43 17 1 
20 32 38 25 21 
12 28 31 23 23 
4 15 21 20 24 
