P2
5 5
255
26 255 41 0 6 
35 247 19 0 29 
36 38 8 10 23 
38 40 8 20 33 
25 12 12 23 6 
