P2
5 5
255
255 33 24 32 23 
41 16 31 39 1 
33 0 32 32 0 
6 12 31 29 2 
0 16 30 8 0 
