P2
5 5
255
0 204 255 128 0 
107 207 222 133 82 
136 187 179 121 99 
117 149 131 116 122 
50 132 120 123 129 
