P2
5 5
255
201 148 101 45 72 
4 54 44 34 46 
7 0 9 46 44 
255 234 64 63 53 
195 123 29 37 47 
