P2
5 5
255
5 46 61 222 3 
6 206 205 98 6 
53 255 234 7 0 
69 253 61 3 53 
69 229 8 70 143 
