P2
5 5
255
196 228 235 209 214 
218 244 235 235 254 
0 223 202 187 186 
17 147 230 160 69 
42 143 165 77 63 
