P2
5 5
255
255 172 11 36 53 
8 5 20 35 38 
0 2 27 38 40 
3 0 31 36 33 
27 29 36 33 30 
