P2
5 5
255
1 23 38 4 246 
14 51 10 0 0 
51 62 44 6 46 
60 66 61 49 255 
38 43 45 44 54 
