P2
5 5
255
160 11 34 40 28 
6 13 33 35 4 
3 26 39 35 10 
28 40 255 28 7 
36 32 35 0 1 
