P2
5 5
255
52 6 2 3 14 
37 0 4 10 17 
36 3 11 8 10 
61 6 15 10 11 
69 254 34 36 22 
