P2
5 5
255
34 22 211 255 243 
0 25 178 177 147 
192 205 199 165 128 
203 222 184 156 150 
139 209 212 164 146 
