P2
5 5
255
0 26 27 65 80 
68 123 140 139 162 
148 154 153 156 163 
154 139 93 86 152 
255 141 61 104 138 
