P2
5 5
255
6 255 249 0 20 
47 252 24 15 25 
45 40 11 40 33 
32 29 35 44 25 
18 19 28 16 4 
