P2
5 5
255
156 8 37 61 212 
169 173 85 95 254 
127 110 216 142 255 
35 74 57 40 39 
0 4 2 30 38 
