P2
5 5
255
65 0 13 115 116 
122 133 182 197 225 
198 230 211 231 255 
242 202 93 224 249 
200 161 65 155 179 
