P2
5 5
255
100 214 238 228 34 
151 205 166 61 0 
200 166 175 87 141 
238 246 232 234 239 
206 254 232 184 212 
