P2
5 5
255
254 6 7 42 46 
2 3 24 44 40 
4 0 33 41 32 
1 17 40 37 34 
33 29 38 37 22 
