P2
5 5
255
7 17 42 8 250 
39 51 31 1 0 
67 72 60 57 61 
65 80 64 66 255 
45 46 45 50 61 
