P2
5 5
255
32 7 196 255 245 
0 26 193 192 148 
144 214 198 168 143 
186 239 218 155 131 
136 231 226 169 131 
