P2
5 5
255
94 28 54 59 213 
179 113 81 127 254 
74 82 60 38 208 
28 70 26 26 36 
0 2 7 13 37 
