P2
5 5
255
255 233 9 34 50 
9 7 5 40 43 
7 0 20 38 43 
6 3 37 37 38 
18 28 37 42 33 
