P2
5 5
255
166 224 155 17 20 
211 226 116 27 7 
238 243 63 0 21 
255 247 31 7 34 
180 161 125 104 115 
