P2
5 5
255
235 179 100 13 56 
8 5 10 6 44 
1 0 12 49 41 
247 255 240 61 51 
233 223 44 47 54 
