P2
5 5
255
233 231 233 148 155 
226 132 82 53 0 
248 145 86 67 3 
255 161 137 79 63 
147 105 77 42 43 
