P2
5 5
255
76 50 37 62 69 
193 66 7 5 56 
255 7 0 162 203 
131 0 164 227 229 
45 128 190 247 74 
