P2
5 5
255
255 229 8 28 50 
225 8 8 34 42 
10 7 6 32 39 
0 10 24 34 36 
29 33 35 39 35 
