P2
5 5
255
249 253 219 72 44 
225 146 37 8 86 
4 2 0 56 81 
1 7 4 101 92 
217 83 100 255 174 
