P2
5 5
255
190 186 171 43 62 
255 192 157 118 199 
127 24 0 184 198 
63 7 19 197 175 
177 20 76 184 153 
