P2
5 5
255
45 57 40 12 2 
44 59 35 6 3 
45 62 29 5 0 
63 255 24 13 25 
28 47 8 15 29 
