P2
5 5
255
89 0 11 230 209 
35 14 218 178 140 
50 157 198 160 99 
147 175 172 136 110 
127 157 255 159 154 
