P2
5 5
255
236 241 223 181 30 
254 238 226 129 128 
189 116 0 3 47 
2 3 1 109 29 
160 78 18 126 100 
