P2
5 5
255
0 45 23 92 90 
79 112 165 171 229 
199 241 237 255 251 
248 245 153 206 232 
217 194 70 106 172 
