P2
5 5
255
252 255 249 239 38 
254 244 126 32 33 
80 2 7 0 31 
116 11 7 16 33 
246 236 183 142 91 
