P2
5 5
255
56 30 28 223 243 
51 26 7 255 224 
91 0 35 209 180 
113 9 16 165 149 
34 15 13 5 1 
