P2
5 5
255
1 44 59 254 0 
7 94 102 118 3 
50 253 131 98 6 
63 255 62 17 105 
62 207 25 68 97 
