P2
5 5
255
60 2 8 252 50 
52 3 45 255 44 
0 7 43 23 7 
0 41 33 9 7 
12 229 22 14 32 
