P2
5 5
255
255 238 0 21 43 
7 9 8 33 38 
8 12 8 35 33 
7 20 39 39 31 
34 39 37 35 16 
