P2
5 5
255
98 155 178 255 35 
79 157 167 42 11 
124 150 120 0 12 
124 176 98 23 34 
161 192 129 67 78 
