P2
5 5
255
255 237 79 57 59 
184 99 66 52 0 
233 179 88 84 68 
175 161 91 84 67 
39 40 39 27 31 
