P2
5 5
255
1 5 59 255 3 
6 36 55 35 0 
27 47 42 32 3 
37 50 40 38 15 
33 250 43 37 32 
