P2
5 5
255
32 10 37 44 5 
7 27 44 30 0 
10 37 255 0 4 
27 40 250 3 1 
34 22 8 1 4 
