P2
5 5
255
0 29 206 215 215 
12 238 224 21 131 
58 255 247 23 112 
49 205 53 26 37 
17 23 20 20 23 
