P2
5 5
255
48 75 42 3 0 
58 77 38 6 10 
69 77 32 2 9 
79 255 6 7 29 
58 218 39 24 35 
