P2
5 5
255
135 9 154 235 254 
237 219 248 248 241 
142 215 239 143 195 
75 133 77 6 113 
12 0 4 1 42 
