P2
5 5
255
252 251 242 242 186 
83 228 226 252 255 
48 32 49 50 0 
84 65 15 69 70 
91 111 84 38 57 
