P2
5 5
255
77 88 17 10 20 
86 76 8 0 49 
98 37 4 34 12 
95 8 5 0 16 
54 27 255 31 41 
