P2
5 5
255
14 54 255 6 3 
37 56 28 0 12 
42 37 1 10 29 
23 13 9 44 13 
47 12 7 13 13 
