P2
5 5
255
4 12 35 255 253 
43 50 30 3 0 
54 66 61 47 57 
53 68 63 53 53 
41 47 40 46 59 
