P2
5 5
255
26 27 130 219 226 
7 0 95 255 243 
12 10 136 254 161 
16 16 143 230 119 
17 49 143 173 97 
