P2
5 5
255
84 0 73 217 217 
0 14 53 43 40 
82 143 255 215 225 
56 86 119 42 40 
32 34 32 36 37 
