P2
5 5
255
35 16 126 123 49 
46 1 115 203 144 
0 0 222 221 151 
17 7 248 251 6 
160 210 255 239 5 
