P2
5 5
255
0 201 255 150 4 
58 182 196 92 93 
76 166 148 107 131 
28 140 37 61 136 
32 21 47 157 161 
