P2
5 5
255
123 197 255 166 8 
127 206 190 21 0 
143 195 171 26 0 
162 215 169 57 30 
211 231 155 127 114 
