P2
5 5
255
10 177 169 117 0 
47 254 234 44 2 
106 242 226 13 14 
146 210 105 4 167 
218 235 154 44 126 
