P2
5 5
255
184 141 115 133 158 
0 67 100 78 72 
4 24 24 60 44 
250 203 72 69 51 
254 73 35 52 51 
