P2
5 5
255
82 163 204 255 0 
102 156 147 28 11 
112 169 128 42 20 
124 195 137 27 39 
153 207 138 42 77 
