P2
5 5
255
185 5 0 21 48 
7 3 1 56 53 
202 214 255 57 54 
243 242 194 58 45 
73 13 32 47 48 
