P2
5 5
255
41 10 193 255 206 
20 0 164 151 124 
176 186 182 150 125 
163 190 169 139 135 
99 200 188 156 118 
