P2
5 5
255
123 198 167 49 9 
175 205 143 22 8 
176 221 101 15 53 
197 255 88 23 0 
143 158 109 39 119 
