P2
5 5
255
6 55 116 252 6 
22 249 121 107 107 
70 255 112 109 118 
207 252 29 109 140 
115 102 0 99 144 
