P2
5 5
255
2 28 32 34 28 
4 29 28 29 28 
3 30 29 19 6 
4 33 32 13 0 
12 255 26 4 6 
