P2
5 5
255
208 224 255 246 179 
155 215 208 196 183 
0 164 211 223 219 
33 64 198 150 83 
30 69 100 81 16 
