P2
5 5
255
188 194 221 219 163 
187 189 209 208 191 
37 181 255 195 197 
0 74 243 219 121 
60 106 163 104 35 
