P2
5 5
255
178 172 207 198 168 
154 196 255 221 237 
29 29 186 144 74 
27 32 43 15 0 
19 35 110 47 0 
