P2
5 5
255
255 190 4 44 45 
169 2 21 39 37 
0 6 26 33 30 
3 5 38 39 30 
22 32 39 37 32 
