P2
5 5
255
98 0 1 58 107 
168 138 165 106 135 
238 251 254 211 139 
242 230 221 119 33 
48 22 28 45 26 
