P2
5 5
255
3 10 254 251 2 
12 51 55 44 0 
35 50 46 26 3 
25 44 34 30 3 
17 67 41 29 4 
