P2
5 5
255
11 201 239 45 11 
154 255 220 49 0 
163 217 196 124 155 
140 172 152 167 125 
85 94 98 145 155 
