P2
5 5
255
186 222 158 194 227 
153 255 141 209 227 
109 185 69 218 52 
120 104 53 167 0 
106 80 59 56 64 
