P2
5 5
255
174 248 235 223 172 
197 241 255 233 201 
32 240 246 204 237 
33 168 241 214 52 
72 100 227 78 0 
